<?xml version="1.0" encoding="utf-8"?>
<!-- Generator: Adobe Illustrator 25.2.1, SVG Export Plug-In . SVG Version: 6.00 Build 0)  -->
<svg version="1.1" id="レイヤー_1" xmlns="http://www.w3.org/2000/svg" xmlns:xlink="http://www.w3.org/1999/xlink" x="0px"
	 y="0px" viewBox="0 0 581.2 73" style="enable-background:new 0 0 581.2 73;" xml:space="preserve">
<style type="text/css">
	.st0{enable-background:new    ;}
	.st1{fill:#FFFFFF;}
</style>
<g>
	<g id="_案">
		<g id="レイヤー_9">
			<g class="st0">
				<path class="st1" d="M115.9,39.2c-0.3,0.5-0.3,0.5-0.9,2.7c-2.3,8.4-5.7,14.2-11,19.1c-4.1,3.7-7.9,6-13.8,8.3
					c-0.7-1.5-1-1.9-2.2-3.1c4-1.2,6.6-2.4,9.9-4.7c7.2-4.8,11.4-11.1,13.9-20.9H89.4c-2.2,0-3.5,0-4.9,0.3v-3.6
					c1.7,0.3,2.6,0.3,5,0.3h21.7c1.8,0,2.1,0,2.8-0.4L115.9,39.2z"/>
				<path class="st1" d="M131.6,49.1c-0.1,0.6-0.1,1-0.2,2.8c-0.3,6-1.2,9.3-3.6,12.2c-2,2.6-4.7,4.4-9.1,6.1
					c-0.6-1.1-0.9-1.5-1.8-2.6c8.9-3.2,11.5-7.1,11.5-17.3c0-0.5,0-0.8-0.1-1.4h3.3V49.1z M117.8,42.7c1.3,0.2,2.4,0.3,4.8,0.3
					l19.2-0.1c1.4,0,1.6,0,2.3-0.3l1.5,1.9c-0.4,0.5-0.4,0.5-1.3,2.2c-1.2,2.3-3.3,4.8-5.6,6.6c-1.4,1.1-2.4,1.7-4.4,2.7
					c-0.7-1-1-1.4-1.9-2.2c4.2-1.6,6.9-3.9,9.2-7.7c0.1-0.2,0.1-0.2,0.2-0.4c0.1-0.1,0.1-0.1,0.1-0.2v-0.1c-0.4,0.1-0.7,0.1-1,0.1
					l-18.4,0.1c-3.1,0-3.3,0-4.7,0.2C117.8,45.8,117.8,42.7,117.8,42.7z"/>
				<path class="st1" d="M172.9,40.4c2.7,0,2.9,0,3.7-0.3l1.8,1.7c-0.4,0.7-0.4,0.7-1,4.4c-1.1,6.6-3.7,12.1-8,16.1
					c-3.3,3.1-7.6,5.5-12.9,7.3c-0.6-1.3-0.9-1.8-2-3c4.2-1.1,6.8-2.3,9.7-4.3c6.2-4.3,9.4-10.3,10.2-19.2h-24v6.6
					c0,1.4,0,2.4,0.1,3.3H147c0.1-0.7,0.2-2.2,0.2-3.3v-5.9c0-1.4,0-2.5-0.2-3.6c1.4,0.1,2.4,0.2,4,0.2h9.3V36c0-1.3,0-1.8-0.2-2.8
					h3.7c-0.1,0.8-0.2,1.7-0.2,2.8v4.5L172.9,40.4L172.9,40.4z"/>
				<path class="st1" d="M178.1,64.7c3.4-0.1,8.7-1.5,12.8-3.4c8.5-3.8,14.4-10.3,18-19.6c1,1.4,1.5,1.8,2.7,2.6
					c-3.5,7.7-7.6,12.8-13.4,16.8c-4.5,3.1-9.1,4.9-16.4,6.6c-1.2,0.3-1.5,0.4-2.6,0.7L178.1,64.7z M180.9,37.4
					c4.7,3,7.4,5.1,10.6,8.3l-2.3,2.7c-3.2-3.4-6.6-6.3-10.5-8.6L180.9,37.4z"/>
				<path class="st1" d="M230,49.3c-0.5,11.4-4.2,16.8-14.2,20.6c-0.6-1.3-1-1.8-2.1-2.9c9.1-3,12.5-7.7,12.9-17.8h-11.9
					c-2.8,0-3.7,0-5.1,0.2v-3.3c1.5,0.2,2.3,0.3,5.1,0.3h25.7c2.8,0,3.7,0,5.1-0.3v3.3c-1.4-0.2-2.3-0.2-5.1-0.2L230,49.3L230,49.3z
					 M214.1,35.3c1.3,0.3,2.2,0.3,5.1,0.3h13.3c2.4,0,3.5,0,5.1-0.2v3.2c-0.6,0-2.2-0.1-5-0.1h-13.4c-3,0-3.8,0-5,0.2v-3.4H214.1z
					 M239.9,31.7c1.9,2.4,3.1,4.4,4.3,7l-2.2,1.2c-1-2.4-3-5.7-4.3-7.1L239.9,31.7z M245.3,30c1.9,2.5,2.9,4.2,4.3,7l-2.2,1.2
					c-0.9-2.1-2.6-5-4.3-7.1L245.3,30z"/>
				<path class="st1" d="M246.9,49.8c1.3,0.2,2.5,0.3,5.5,0.3H278c3.3,0,4,0,5.3-0.2v3.6c-1.4-0.1-2.4-0.2-5.4-0.2h-25.5
					c-3.2,0-4.1,0-5.5,0.2V49.8z"/>
				<path class="st1" d="M285.9,45.2c4.2,1.7,7.3,3.3,11.2,5.8l-1.7,2.9c-3.2-2.3-7.2-4.5-11.2-6L285.9,45.2z M284.7,65.3
					c2.9,0,7.4-1.1,11.8-2.7c5.5-2.1,9.6-5.2,13.2-9.8c2.5-3.2,3.9-6,5.3-9.9c1.1,1.1,1.5,1.5,2.7,2.3c-3.8,9.2-9.2,15.1-16.9,19
					c-3.1,1.5-7.5,3-11.1,3.8c-0.7,0.1-1.5,0.3-2.4,0.5s-1.1,0.3-1.7,0.5L284.7,65.3z M289.3,34.6c4.3,1.8,7.2,3.2,10.9,5.5
					l-1.8,2.9c-3-2.2-7.6-4.7-10.8-5.8L289.3,34.6z"/>
				<path class="st1" d="M323.1,68.7c-2.4,0-2.7,0-3.8,0.2v-3.1c1.1,0.2,2.2,0.3,3.8,0.3H340v-8.3h-15.5c-2.3,0-2.7,0-3.8,0.2v-3
					c1.1,0.2,2.1,0.3,3.8,0.3H340v-7.7h-16.5c-2.3,0-2.7,0-3.8,0.2v-3c1.1,0.2,2.1,0.3,3.8,0.3h16.4c1.4,0,2.2,0,3-0.1
					c0,1.1,0,1.8,0,3.4v19.9c0,1.4,0,2,0.2,2.7h-3v-2.2h-17V68.7z"/>
				<path class="st1" d="M347.1,64.7c3.4-0.1,8.7-1.5,12.8-3.4c8.5-3.8,14.4-10.3,18-19.6c1,1.4,1.5,1.8,2.7,2.6
					c-3.5,7.7-7.6,12.8-13.4,16.8c-4.5,3.1-9.1,4.9-16.4,6.6c-1.2,0.3-1.5,0.4-2.6,0.7L347.1,64.7z M349.9,37.4
					c4.7,3,7.4,5.1,10.6,8.3l-2.3,2.7c-3.2-3.4-6.6-6.3-10.5-8.6L349.9,37.4z"/>
				<path class="st1" d="M426.9,39.2c-0.3,0.5-0.3,0.5-0.9,2.7c-2.3,8.4-5.7,14.2-11,19.1c-4.1,3.7-7.9,6-13.8,8.3
					c-0.7-1.5-1-1.9-2.2-3.1c4-1.2,6.6-2.4,9.9-4.7c7.2-4.8,11.4-11.1,13.9-20.9h-22.4c-2.2,0-3.5,0-4.9,0.3v-3.6
					c1.7,0.3,2.6,0.3,5,0.3h21.7c1.8,0,2.1,0,2.8-0.4L426.9,39.2z"/>
				<path class="st1" d="M443.5,65.8h9.4c2.1,0,2.9,0,4-0.2v3.1c-1.1-0.1-2.2-0.2-4-0.2h-21.3c-1.9,0-2.9,0-4,0.2v-3.1
					c1.1,0.2,1.8,0.3,4,0.3h8.9V50.6h-6.3c-1.9,0-2.9,0-3.9,0.2v-3.1c1.1,0.2,2.2,0.3,3.9,0.3h16.1c1.8,0,2.9-0.1,3.9-0.3v3.1
					c-1.2-0.2-1.5-0.2-3.9-0.2h-6.8L443.5,65.8L443.5,65.8z"/>
				<path class="st1" d="M464.9,34.5c-0.1,1.1-0.2,1.6-0.2,3.7V50c0,2.1,0,2.6,0.2,3.7h-3.7c0.1-1,0.2-1.9,0.2-3.7V38.2
					c0-1.9,0-2.6-0.2-3.7H464.9z M484.4,34.5c-0.2,1-0.2,1.7-0.2,3.8v5.2c0,7-0.3,10.9-1.1,13.4c-1.3,4.1-4,7.3-8.4,9.8
					c-2.2,1.2-4.3,2.1-8,3.2c-0.5-1.3-0.7-1.7-1.8-3c4-0.9,6.1-1.6,8.4-3c4.1-2.4,6.2-5.2,7-9.3c0.5-2.5,0.6-4.5,0.6-11.2v-5
					c0-2.3,0-2.9-0.2-3.9H484.4z"/>
				<path class="st1" d="M500.9,41.9c0.2-2.2,0.3-4.7,0.3-6.6c0-1,0-1.5-0.2-2.3l3.6,0.1c-0.2,1-0.2,1-0.4,5.7
					c-0.1,1.4-0.1,1.9-0.2,3.1h11c2,0,2,0,2.9-0.3l1.6,1.4c-0.3,0.7-0.3,1.1-0.4,2.6c-0.1,5.7-0.7,12.4-1.2,15.4
					c-1.1,6-2.4,7.6-6.4,7.6c-1.4,0-3.1-0.2-5.5-0.7c0-0.3,0-0.4,0-0.5c0-1-0.1-1.6-0.5-2.8c2.4,0.8,4.2,1.1,5.7,1.1
					c2.2,0,2.9-1.1,3.7-5.4c0.7-3.5,1.1-9.1,1.1-15.6h-12.3c-0.6,5.6-1.6,9.3-3.5,13c-2.5,4.5-6.6,8.7-11.5,11.7
					c-0.8-1.3-1.1-1.6-2.2-2.6c5.2-2.8,9-6.6,11.4-11.6c1.5-3.1,2.2-5.5,2.7-10.5h-8c-2.6,0-3.1,0-4.7,0.2v-3.3
					c1.5,0.3,2.6,0.3,4.8,0.3L500.9,41.9z"/>
				<path class="st1" d="M536.8,63.5c0,2.2,0.1,3.4,0.4,5H533c0.3-1.4,0.4-2.9,0.4-5V38.1h-6.9c-2.2,0-3.6,0.1-5.1,0.3v-3.7
					c1.5,0.2,2.7,0.3,5,0.3h17.2c2.6,0,3.7-0.1,5.2-0.3v3.7c-1.5-0.2-2.7-0.3-5.2-0.3h-6.8L536.8,63.5L536.8,63.5z"/>
				<path class="st1" d="M576.7,68.5c-0.4-1.6-0.8-3.1-1.4-4.5l-2.3-5.7h-15.4l-2.3,5.7c-0.7,1.7-1.1,2.9-1.4,4.5h-4.6
					c0.9-1.5,1.2-2.1,2.4-5.1l9.9-24.3c0.8-2.1,1.2-3.1,1.4-4.1h4.4c0.2,0.8,0.4,1.4,1.5,4.1l9.9,24.3c1.1,2.6,1.7,3.9,2.3,5.1
					H576.7z M566.3,40.8c-0.1-0.4-0.1-0.4-1-2.8c-0.2,0.7-0.4,1.1-0.5,1.5c-0.3,0.7-0.4,1.2-0.5,1.4l-5.6,14.5H572L566.3,40.8z"/>
			</g>
			<line class="st1" x1="35.9" y1="1.5" x2="71.3" y2="1.5"/>
			<path class="st1" d="M35.9,3h35.4c0.8,0,1.5-0.7,1.5-1.5S72.1,0,71.3,0H35.9c-0.8,0-1.5,0.7-1.5,1.5S35,3,35.9,3z"/>
			<line class="st1" x1="35.9" y1="71.5" x2="35.9" y2="1.5"/>
			<path class="st1" d="M37.4,71.5v-70c0-0.8-0.7-1.5-1.5-1.5s-1.5,0.7-1.5,1.5v69.9c0,0.8,0.7,1.5,1.5,1.5S37.4,72.3,37.4,71.5z"/>
			<line class="st1" x1="71.1" y1="34.1" x2="1.5" y2="34.4"/>
			<path class="st1" d="M71.1,32.6L1.5,32.9c-0.8,0-1.5,0.7-1.5,1.5s0.7,1.5,1.5,1.5l69.6-0.3c0.8,0,1.5-0.7,1.5-1.5
				S72,32.6,71.1,32.6z"/>
			<line class="st1" x1="71.3" y1="71.5" x2="71.3" y2="1.5"/>
			<path class="st1" d="M72.8,71.5v-70c0-0.8-0.7-1.5-1.5-1.5s-1.5,0.7-1.5,1.5v69.9c0,0.8,0.7,1.5,1.5,1.5S72.8,72.3,72.8,71.5z"/>
			<line class="st1" x1="35.9" y1="71.5" x2="71.3" y2="1.5"/>
			<path class="st1" d="M37.1,72.2L72.6,2.3C73.5,0.6,70.9-1,70,0.8L34.6,70.7C33.7,72.4,36.3,74,37.1,72.2z"/>
			<g class="st0">
				<path class="st1" d="M91.4,5.9c-1.4,0-2,0-2.8,0.1V4.3c0.8,0.1,1.5,0.2,2.9,0.2h6.8V4.3c0-1.1,0-1.6-0.2-2.3h1.8
					c-0.1,0.7-0.2,1.4-0.2,2.3v0.2h7.2c1.6,0,2.4,0,3-0.2V6c-0.7-0.1-1.7-0.1-3-0.1h-7.2v2h5.2c1.5,0,2.1,0,2.7-0.1
					c-0.1,0.7-0.1,1.2-0.1,2.5v3.5c0,1.4,0,1.8,0.1,2.5c-0.6-0.1-1.3-0.1-2.7-0.1h-4.1c2.6,2.7,5.4,4.2,9.9,5.3
					c-0.4,0.6-0.6,0.8-0.9,1.5c-2.2-0.7-3.7-1.4-5.4-2.4c-1.9-1.1-3.3-2.2-4.8-3.9c0,0.6,0.1,1.4,0.1,1.9V21c0,1.3,0,1.9,0.2,2.7
					h-1.8c0.1-0.8,0.2-1.4,0.2-2.7v-2.4c0-0.5,0-1.2,0.1-1.8c-1,1.2-1.6,1.8-2.8,2.7c-1.9,1.5-4.1,2.6-6.7,3.5
					c-0.4-0.7-0.5-1-0.9-1.4c2.2-0.6,3.9-1.3,5.8-2.6c1.6-1,2.4-1.7,3.4-2.8h-3.5c-1.5,0-2.1,0-2.8,0.1V16c0-0.5,0.1-0.9,0.1-2.2
					v-3.5c0-1.4,0-1.8-0.1-2.6c0.6,0.1,1.2,0.1,2.7,0.1h4.8v-2L91.4,5.9L91.4,5.9z M92.4,9.1v2.2h5.9V9.1H92.4z M92.4,12.5V15h5.9
					v-2.4h-5.9V12.5z M99.7,11.3h6.4V9.1h-6.4V11.3z M99.7,15h6.4v-2.4h-6.4V15z"/>
				<path class="st1" d="M119.2,16.8c-1.8,2.8-3.1,4.2-5.7,6c-0.5-0.6-0.6-0.8-1.1-1.2c1.4-0.9,2.2-1.4,3.1-2.4c1-1,1.5-1.8,2.3-3.2
					L119.2,16.8z M122.2,4.1c0-0.8,0-1.4-0.2-2h1.9c-0.1,0.5-0.2,1.1-0.2,2V5h7.4c1.2,0,2,0,2.7-0.2v1.7c-0.6-0.1-1.3-0.1-2.6-0.1
					h-15.9c-1.3,0-1.9,0-2.6,0.1V4.8c0.7,0.1,1.5,0.2,2.7,0.2h6.8V4.1z M117.8,14.9c-1,0-1.4,0-2.1,0.1c0.1-0.6,0.1-1.1,0.1-1.9
					v-2.7c0-0.9,0-1.3-0.1-2c0.7,0.1,1.1,0.1,2.1,0.1h10.4c1.2,0,1.7,0,2.2-0.1c-0.1,0.6-0.1,1.1-0.1,2V13c0,0.8,0,1.3,0.1,1.9
					c-0.6,0-1.3-0.1-2.2-0.1H124v6.7c0,1.4-0.6,1.8-2.6,1.8c-0.5,0-1.5,0-2.4-0.1c-0.1-0.6-0.1-0.9-0.4-1.6c1,0.2,1.8,0.2,2.6,0.2
					c1.1,0,1.2-0.1,1.2-0.6v-6.5h-4.6V14.9z M117.3,13.5h11.6V9.8h-11.6C117.3,9.8,117.3,13.5,117.3,13.5z M128.2,15.9
					c0.9,1.4,1.4,2.1,2.4,3c1,1,1.7,1.6,3.3,2.5c-0.5,0.4-0.8,0.8-1.1,1.3c-1.4-1-2-1.5-3-2.5c-1.2-1.2-1.8-1.9-2.9-3.5L128.2,15.9z
					"/>
				<path class="st1" d="M143.2,12.9c0,1.1-0.9,2-2,2s-2-0.9-2-2s0.9-2,2-2S143.2,11.8,143.2,12.9z"/>
				<path class="st1" d="M149.1,8.3c1.8,1.1,2.8,1.8,4.1,3l-0.9,1.3c-1.3-1.3-2.3-2.1-4.1-3.2L149.1,8.3z M153.4,15.9
					c-0.7,2.1-1.3,3.6-2.1,5.1c-0.2,0.5-0.4,0.8-0.8,1.4c-0.2,0.3-0.2,0.4-0.5,0.8l-1.4-1.2c1.2-1.2,2.5-3.8,3.6-7.1L153.4,15.9z
					 M150.5,2.4c1.5,1,2.4,1.8,3.8,3.2l-1,1.2c-1.4-1.6-2.1-2.2-3.7-3.3L150.5,2.4z M158,11.6v8.8c0,0.6,0.1,0.8,0.6,0.9
					c0.5,0.2,1.9,0.2,4.1,0.2c3.2,0,4.5-0.1,5-0.5c0.4-0.4,0.7-1.3,0.9-3.3c0.6,0.4,0.9,0.5,1.5,0.6c-0.3,2.4-0.7,3.4-1.3,3.9
					c-0.7,0.6-2.2,0.8-6,0.8c-3.2,0-4.7-0.1-5.4-0.5s-0.9-0.8-0.9-1.7v-8.7h-0.2c-1,0.4-1.5,0.6-2,0.8l-0.5-1.7
					c0.7-0.1,1.3-0.3,2.1-0.5l0.5-0.2V6.9c0-1,0-1.7-0.1-2.4h1.8C158,5.1,158,5.9,158,6.9v3.2l3.7-1.3V4.4c0-0.9,0-1.6-0.1-2.3h1.8
					c-0.1,0.7-0.1,1.3-0.1,2.3v3.9l3.9-1.3c0.8-0.3,1.4-0.5,1.9-0.7c-0.1,4.5-0.3,7.7-0.5,8.6c-0.2,0.7-0.5,1.3-0.9,1.5
					s-0.7,0.3-1.4,0.3c-0.6,0-1,0-1.6-0.1c-0.1-0.6-0.2-0.9-0.4-1.5c0.8,0.2,1.3,0.3,1.9,0.3c0.5,0,0.8-0.1,0.9-0.4
					c0.2-0.5,0.4-3.1,0.5-6.5l-4.3,1.5v6.6c0,1,0,1.7,0.1,2.3h-1.8c0.1-0.7,0.1-1.3,0.1-2.3v-6.1L158,11.6z"/>
				<path class="st1" d="M175.9,9c0-0.7,0-1.3,0-1.8c-1,0.9-2,1.8-3.1,2.6c-0.3-0.5-0.5-0.7-0.9-1.2c2.6-1.6,5.6-4.5,6.3-6.3
					l1.5,0.6c-0.2,0.2-0.2,0.2-0.5,0.7c-0.4,0.5-1.1,1.4-1.7,2.1v4.5c0,1.1,0,1.6,0.1,2.2h-1.7c0.1-0.7,0.1-1.2,0.1-2.2V9H175.9z
					 M178.6,18c-1.7,1-3.1,1.7-5.7,2.6c-0.2-0.5-0.5-1-0.9-1.3c3.6-1,6.6-2.5,8.7-4.3h-5.5c-1.1,0-1.9,0-2.6,0.1v-1.6
					c0.7,0.1,1.4,0.1,2.6,0.1h7.1v-0.8c0-0.9,0-1.4-0.1-1.9h1.8c-0.1,0.6-0.1,1-0.1,1.9v0.8h7.6c1.2,0,1.9,0,2.6-0.1v1.6
					c-0.8-0.1-1.5-0.1-2.6-0.1h-6.8c0.7,1.5,1.2,2.2,2.3,3.2c1.7-1.1,2.7-2,3.6-2.9l1.3,1c-1.5,1.2-2.1,1.7-3.9,2.8
					c1.8,1.4,4,2.3,6.9,3c-0.5,0.6-0.7,0.9-1,1.5c-2.1-0.7-3-1.1-4.3-1.7c-2.2-1.2-3.8-2.5-5-4.2c-0.6-0.8-0.8-1.2-1.4-2.6h-0.5
					c-0.9,0.8-1.4,1.3-2.5,2.1v4.3c2-0.4,3.2-0.7,5.8-1.4v1.5c-3.2,1-5.9,1.6-9.7,2.2c-0.2,0-0.6,0.1-0.9,0.2l-0.4-1.7
					c0.9,0,1.8-0.1,3.7-0.4V18H178.6z M180.8,8c-0.9,0.1-1.2,0.2-1.9,0.3l-0.2-1.6c0.2,0,0.4,0,0.5,0c0.4,0,1.1,0,1.5-0.1l2.8-0.3
					c-0.4-1-0.6-1.5-0.9-2.9c-0.1-0.5-0.1-0.6-0.3-1l1.8-0.1c0,0.1,0,0.2,0,0.3c0,0.9,0.4,2.4,0.9,3.6l6-0.6
					c1.2-0.1,1.8-0.2,2.5-0.4l0.2,1.5c-0.2,0-0.2,0-0.4,0c-0.5,0-1,0-2,0.1l-5.4,0.6c0.6,0.9,1.3,1.6,2.4,2.3
					c1.1,0.8,2.6,1.4,3.3,1.4c0.6,0,0.8-0.5,1.3-2.3c0.4,0.5,0.7,0.7,1.2,1c-0.3,1.1-0.6,1.6-0.9,2c-0.4,0.5-0.9,0.7-1.5,0.7
					c-1.3,0-3.1-0.7-4.6-1.8c-1.2-0.8-2.1-1.9-2.9-3.1L180.8,8z M189.6,5.2c-1.4-1-1.9-1.4-3.6-2.1l0.9-1c1.3,0.6,2.2,1.1,3.6,2
					L189.6,5.2z"/>
				<path class="st1" d="M205.4,15.6c-1.4,3.2-2.8,4.6-4.5,4.6c-2.3,0-4-2.5-4-5.9c0-2.4,0.9-4.8,2.5-6.6c1.9-2.1,4.5-3.2,7.8-3.2
					c2.7,0,5,0.8,6.6,2.4c1.5,1.5,2.3,3.6,2.3,5.9c0,3.7-2,6.8-5.5,8.3c-1.1,0.5-2,0.7-3.6,1.1c-0.2-0.8-0.4-1-0.8-1.6
					c1.8-0.3,2.9-0.6,4-1.1c2.6-1.2,4.2-3.8,4.2-6.7c0-2.7-1.4-4.9-3.8-6c-0.9-0.4-1.6-0.6-2.8-0.6C207.4,9.4,206.4,13.1,205.4,15.6
					z M202.4,7.2c-2.4,1.5-3.9,4.2-3.9,7.2c0,2.3,1,4.1,2.3,4.1c1,0,2-1.1,3-3.5c1-2.3,1.9-5.8,2.2-8.9
					C204.6,6.2,203.5,6.6,202.4,7.2z"/>
				<path class="st1" d="M221.8,7.8c-1,0-1.8,0-2.4,0.1V6.3c0.7,0.1,1.4,0.1,2.5,0.1h7V4.6c0-1.2,0-1.9-0.1-2.6h1.8
					c-0.1,0.7-0.1,1.4-0.1,2.6v1.8h7.1c1.1,0,1.8,0,2.5-0.1V8c-0.6-0.1-1.4-0.1-2.5-0.1h-7.1c0.5,1.9,1.3,3.9,2.5,5.7
					c2-1.7,3.4-3.2,4.2-4.5l1.3,1c-0.2,0.2-0.2,0.2-1.4,1.6c-0.8,0.9-2,2-3.3,3.1c0.8,1.1,1.6,2,2.5,2.9c1.3,1.3,2.4,2,4.1,2.9
					c-0.4,0.4-0.7,0.8-1.1,1.4c-1.8-1.1-2.7-1.9-4.2-3.3c-1.2-1.3-2.4-2.8-3.3-4.4c-0.7-1.2-1-1.9-1.5-3.5c0,0.7,0.1,3.3,0.1,4v7.1
					c0,1.4-0.5,1.8-2.4,1.8c-1,0-2,0-3-0.1c-0.1-0.6-0.1-1-0.4-1.6c1.2,0.2,2.3,0.3,3.1,0.3c0.9,0,1.1-0.1,1.1-0.7V7.8H221.8z
					 M228.2,16.2c-2.3,1.6-3.3,2.2-6.7,4.1c-0.5,0.3-0.8,0.4-1.2,0.7l-0.8-1.6c1.1-0.3,2-0.7,3.6-1.6c2-1.1,3-1.8,4.6-3L228.2,16.2z
					 M222.9,9.1c1.5,1.5,2.2,2.4,3.4,4.1l-1.3,1c-1.1-1.8-1.9-2.9-3.3-4.2L222.9,9.1z M233.5,2.2c1.7,1,2.3,1.4,3.7,2.7l-1.1,1
					c-1.3-1.3-2-1.8-3.7-2.8L233.5,2.2z"/>
				<path class="st1" d="M243.9,4.3c-0.5,0-1,0-1.3,0.1V2.8c0.5,0.1,1,0.1,1.7,0.1h4.2c0.8,0,1.3,0,1.7-0.1v1.5c-0.4,0-0.5,0-1,0
					v17.1c0,1.1,0,1.8,0.1,2.4h-1.6c0.1-0.6,0.1-1.3,0.1-2.5v-2.4c-1.5,0.5-2.4,0.7-3.4,1c-0.9,0.2-1.5,0.4-1.8,0.5l-0.4-1.6
					c0.3,0,0.8-0.1,1.6-0.2L243.9,4.3L243.9,4.3z M245.3,8h2.6V4.3h-2.6V8z M245.3,12.7h2.6V9.3h-2.6V12.7z M245.3,18.4
					c1-0.2,1.5-0.4,2.6-0.7V14h-2.6V18.4z M256.1,4.6c1,0,1.4,0,1.8-0.1v1.3c-0.4,0-0.6,0-1,0c-0.2,1.2-0.5,2.4-0.8,3.3h2.6
					c-0.1-1.6-0.1-2.4-0.1-5.3c0-0.8,0-1.1-0.1-1.6h1.6C260,2.9,260,3.3,260,4.9c0,1.2,0,3,0.1,4.2h1.8c1.4,0,1.9,0,2.6-0.1v1.6
					c-0.8-0.1-1.4-0.1-2.6-0.1h-1.7c0.2,2.4,0.4,4.4,0.8,5.9c0.9-1.6,1.5-3.3,1.7-4.6l1.3,0.8c-0.2,0.3-0.3,0.7-0.6,1.4
					c-0.6,1.5-1.2,2.8-2,4c0.3,1,0.6,1.7,1.1,2.6c0.3,0.6,0.4,0.6,0.7,0.9c0.1,0.1,0.1,0.1,0.1,0.1c0.1,0,0.2-0.4,0.4-1
					c0.1-0.8,0.2-1.5,0.2-2.5c0.5,0.4,0.8,0.7,1.3,0.9c-0.2,2-0.4,2.5-0.6,3.3c-0.3,0.6-0.7,1-1.2,1c-1,0-2.1-1.4-3-3.8
					c-1.4,1.8-2.6,2.9-4.5,4.2c-0.4-0.5-0.6-0.7-1-1c2.3-1.5,3.6-2.7,5.1-4.7c-0.6-2-1-4.5-1.1-7.4h-7.2c-0.7,0-1.1,0-1.8,0.1V9
					c0.6,0.1,1,0.1,1.8,0.1h0.5c-0.2-1.2-0.3-2-0.6-3.3c-0.6,0-0.8,0-1.2,0.1V4.5c0.6,0.1,1,0.1,1.8,0.1h1.4V4.2c0-1,0-1.5-0.1-2
					h1.7c-0.1,0.6-0.1,1.1-0.1,2.1v0.3H256.1z M257.3,19c0,0.3,0,1,0,1.3c-0.6,0-0.9,0-2,0h-3v1.9h-1.4c0.1-0.7,0.1-1.3,0.1-2.2
					v-5.8c0-1,0-1.5-0.1-2.3c0.5,0.1,0.8,0.1,1.7,0.1h3c0.8,0,1.1,0,1.7-0.1c-0.1,0.6-0.1,1.2-0.1,2.3v4.2V19H257.3z M252.4,19.1
					h3.6v-2.5h-3.6V19.1z M252.4,15.4h3.6v-2.3h-3.6V15.4z M254.9,9.1c0.4-1.1,0.6-2.2,0.7-3.3h-3c0.3,1.2,0.4,2.4,0.5,3.3H254.9z
					 M262,3.5c0.9,1.1,1.3,1.8,2.2,3.4L263,7.7c-0.6-1.5-1.1-2.3-2.1-3.5L262,3.5z"/>
				<path class="st1" d="M276.8,4.1c0-1,0-1.4-0.2-2.1h1.9c-0.1,0.6-0.2,1.1-0.2,2.1v1.5h7.2c1,0,1.8,0,2.5-0.2v1.7
					C287.4,7,286.6,7,285.6,7h-7.2v3.9h3.2c1.1,0,1.6,0,2.1-0.1l1,1c-0.3,0.3-0.5,0.6-0.8,1.2c-1.2,1.9-2.8,3.7-4.8,5.3
					c2.6,1.7,5.4,2.8,9.4,3.6c-0.5,0.6-0.6,0.9-0.9,1.6c-4-1-6.9-2.3-9.7-4.3c-3,2.1-6,3.4-9.8,4.2c-0.2-0.6-0.5-1-0.9-1.5
					c3.7-0.6,6.6-1.8,9.4-3.7c-1.1-0.9-2-1.8-2.8-2.9c-0.8-1-1.1-1.6-1.8-3.1h-0.3c-1.1,0-1.8,0-2.5,0.1v-1.6
					c0.6,0.1,1.4,0.1,2.6,0.1h5V7H270c-1,0-1.8,0-2.5,0.1V5.4c0.7,0.1,1.5,0.2,2.5,0.2h6.8V4.1z M273.8,12.2c1,2.2,2.1,3.5,4.1,5.2
					c2.2-1.7,3.3-3,4.7-5.2H273.8z"/>
				<path class="st1" d="M293.9,4.6c0-1.1,0-1.7-0.1-2.4h1.8c-0.1,0.6-0.1,1.3-0.1,2.4v2.3h0.7c0.6,0,1,0,1.5-0.1v1.5
					c-0.5-0.1-0.9-0.1-1.5-0.1h-0.7v4.3c0.8-0.3,1.1-0.5,2-1l0.1,1.4c-0.9,0.5-1.2,0.7-2.1,1.1v7.9c0,1.3-0.5,1.6-2.5,1.6
					c-0.5,0-0.8,0-1.4,0c0-0.5-0.1-0.9-0.3-1.5c0.8,0.1,1.5,0.2,2.1,0.2c0.5,0,0.6-0.1,0.6-0.5v-7.1c-1,0.4-1,0.5-1.8,0.7
					c-0.4,0.1-0.6,0.2-1,0.4l-0.4-1.6c0.8-0.1,1.2-0.2,3.3-1.1V8.2h-1.4c-0.6,0-1,0-1.6,0.1V6.8c0.5,0.1,0.9,0.1,1.6,0.1h1.4V4.6
					H293.9z M300.5,10.2c-0.9,0-1.6,0-2.3,0.1V8.9c0.6,0.1,1.2,0.1,2.2,0.1h6.8c1.2-1.7,1.8-3,2.3-4.5L311,5c-1.3,2.5-1.4,2.6-2.4,4
					h1.1c1,0,1.5,0,2.1-0.1v1.5c-0.7-0.1-1.3-0.1-2.2-0.1H303c-0.1,1.1-0.1,1.3-0.2,2h7c1.3,0,2,0,2.6-0.1v1.6
					c-0.8-0.1-1.6-0.1-2.6-0.1h-7.2c-0.1,0.7-0.3,1.1-0.5,1.8h5.5c1.1,0,1.6,0,2-0.1l0.8,1c-0.1,0.2-0.1,0.2-0.6,0.8
					c-0.6,0.9-1.9,2.3-3,3.2c1.9,1.1,3.5,1.6,6,2.1c-0.4,0.6-0.5,0.8-0.8,1.5c-2.7-0.8-4.5-1.6-6.4-2.8c-1.9,1.2-3.6,2-6.1,2.7
					c-0.2-0.6-0.4-0.9-0.8-1.3c2.3-0.5,3.9-1.1,5.7-2.3c-1.3-1-2.2-1.9-3-3.1c-1.2,2.6-2.5,4.5-4.8,6.5c-0.3-0.5-0.5-0.7-1.1-1.1
					c1.6-1.3,2.5-2.3,3.5-3.9c1-1.5,1.6-3.2,2-5h-0.8c-1.1,0-1.8,0-2.5,0.1v-1.5c0.6,0.1,1.4,0.1,2.5,0.1h1c0.1-0.7,0.1-1.2,0.2-2
					h-0.9V10.2z M311.5,3.4c-0.4,0.1-0.4,0.1-1.2,0.2c-3,0.7-7.9,1.2-12.4,1.4c-0.1-0.6-0.2-0.7-0.5-1.4c0.3,0,0.5,0,0.6,0
					c4.7,0,10.5-0.8,12.4-1.6L311.5,3.4z M300.6,8.8c-0.5-1.3-0.8-2-1.6-3l1.2-0.5c0.7,1,1.1,1.8,1.5,3L300.6,8.8z M302.6,16.6
					c0.8,1,1.7,1.9,3,2.8c1.2-0.9,1.9-1.7,2.7-2.8H302.6z M304.5,8.6c-0.3-1.2-0.7-2.1-1.4-3.3l1.2-0.4c0.7,1.2,1,1.8,1.4,3.2
					L304.5,8.6z"/>
				<path class="st1" d="M314.7,6.1c0.6,0.1,1,0.1,1.9,0.1h4.8c1,0,1.3,0,1.9-0.1v1.6c-0.5-0.1-0.9-0.1-1.7-0.1h-5
					c-0.9,0-1.3,0-1.9,0.1L314.7,6.1L314.7,6.1z M315.7,23.6c0.1-0.6,0.1-1.6,0.1-2.3V18c0-0.8,0-1.3-0.1-2c0.4,0.1,0.7,0.1,1.5,0.1
					h3.6c0.8,0,1.1,0,1.4-0.1c0,0.4-0.1,0.8-0.1,1.9v2.8c0,0.5,0,1.1,0,1.6c-0.3,0-0.7,0-1.4,0H317v1.4L315.7,23.6L315.7,23.6z
					 M315.8,9.5c0.5,0.1,0.8,0.1,1.6,0.1h3.4c0.8,0,1.2,0,1.6-0.1V11c-0.5-0.1-0.9-0.1-1.6-0.1h-3.4c-0.8,0-1.1,0-1.6,0.1V9.5z
					 M315.8,12.8c0.5,0.1,0.8,0.1,1.6,0.1h3.4c0.8,0,1.1,0,1.6-0.1v1.5c-0.5-0.1-0.9-0.1-1.6-0.1h-3.4c-0.8,0-1.2,0-1.6,0.1V12.8z
					 M315.8,2.8c0.5,0.1,0.9,0.1,1.7,0.1h3.2c0.8,0,1.2,0,1.7-0.1v1.5c-0.5-0.1-1-0.1-1.7-0.1h-3.2c-0.7,0-1.2,0-1.7,0.1V2.8z
					 M317.3,20.9h3.7v-3.6h-3.7V20.9z M326.3,10.3c0,3.8-0.2,6.6-0.7,9c-0.4,1.8-1,3.2-2,4.6c-0.4-0.5-0.6-0.7-1.2-1
					c0.9-1.1,1.5-2.5,1.9-4.4c0.4-2.1,0.6-4.4,0.6-8.6V4.6c0-1.2,0-1.7-0.1-2.4h1.8c-0.1,0.6-0.1,1.2-0.1,2.4v5.7H326.3z M330.9,3.4
					c-0.1,0.7-0.1,1.2-0.1,2.5V19c0,1.2,0,1.8,0.1,2.4h-1.8c0.1-0.6,0.1-1.2,0.1-2.4V6c0-1.2,0-1.8-0.1-2.5L330.9,3.4L330.9,3.4z
					 M335.7,2.3c-0.1,0.7-0.1,1.4-0.1,2.9v15.6c0,1.5,0,2.2,0.1,2.9h-1.8c0.1-0.7,0.1-1.4,0.1-2.9V5.2c0-1.5,0-2.1-0.1-2.9
					C333.9,2.3,335.7,2.3,335.7,2.3z"/>
				<path class="st1" d="M338.7,12.5c0.3,0,0.6,0,0.9,0s0.4,0,1,0c0.6-0.8,0.7-1,1.5-2.2c-1-1.4-1.9-2.5-3.2-3.9l0.8-1.1
					c0.5,0.5,0.6,0.7,1,1.1c1.1-1.8,1.8-3.5,2.1-4.5l1.5,0.7C344,3,344,3,343.4,4.2c-0.6,1.1-1,1.9-1.8,3.1c0.7,0.8,1,1.2,1.3,1.7
					c1.1-1.8,2-3.4,2.3-4.3l1.4,0.8c-0.1,0.1-0.7,1.2-2,3.3c-0.3,0.5-1.9,2.8-2.5,3.6c1.6-0.1,2.1-0.2,3.4-0.3
					c-0.3-0.8-0.5-1.2-0.9-2.1l1-0.5c0.8,1.6,1.3,2.9,1.8,4.6l-1.2,0.5c-0.2-0.7-0.2-1-0.4-1.4c-1,0.2-1,0.2-2,0.3v8
					c0,0.9,0,1.7,0.1,2.4h-1.7c0.1-0.7,0.1-1.5,0.1-2.4v-7.8c-0.8,0.1-1,0.1-2.6,0.2c-0.5,0-0.6,0-0.9,0.1L338.7,12.5z M341.3,15.3
					c-0.3,3.4-0.5,4.6-1.2,6.7l-1.3-0.6c0.7-2,1-3.4,1.2-6.4L341.3,15.3z M346,15c0.5,1.8,0.7,2.7,0.9,4.5l-1.2,0.4
					c-0.2-1.9-0.4-2.9-0.8-4.6L346,15z M349.1,5.9c-0.9,0-1.5,0-2.2,0.1V4.4c0.6,0.1,1.3,0.1,2.3,0.1h3.6V4.4c0-0.8,0-1.5-0.1-2.3
					h1.6c-0.1,0.7-0.1,1.3-0.1,2.3v0.2h4.2c1,0,1.6,0,2.3-0.1V6c-0.6-0.1-1.3-0.1-2.2-0.1h-4.3v1.9h3.3c1,0,1.5,0,2-0.1
					c-0.1,0.5-0.1,1.2-0.1,2.3v3.7c0,1.2,0,1.9,0.1,2.4c-0.6-0.1-1.2-0.1-2.3-0.1h-2.5c1.7,2.2,3.9,4,6.6,5.2
					c-0.4,0.5-0.6,0.9-0.8,1.4c-3.1-1.8-4.7-3.2-6.5-5.8c0.1,0.7,0.1,1.5,0.1,2.2v2.6c0,1.1,0,1.6,0.1,2.2h-1.6
					c0.1-0.6,0.1-1.2,0.1-2.2V19c0-1,0-1.5,0.1-2.2c-1.2,1.7-1.9,2.5-3.1,3.5c-1.1,1-2,1.6-3.2,2.3c-0.3-0.6-0.5-0.9-1-1.3
					c2-1,3.5-2,5-3.5c0.6-0.6,0.9-1,1.5-1.8h-2c-1,0-1.7,0-2.3,0.1c0.1-0.5,0.1-1.2,0.1-2.2v-4c0-1,0-1.7-0.1-2.2
					c0.5,0.1,1.1,0.1,2,0.1h3V5.9H349.1z M349.1,9v2.2h3.7V9H349.1z M349.1,12.4v2.3h3.7v-2.3H349.1z M354.1,11.2h3.9V9h-3.9V11.2z
					 M354.1,14.7h3.9v-2.3h-3.9V14.7z"/>
				<path class="st1" d="M368.1,8.2c0.5,1.5,1.3,2.8,2.6,4.1c-0.4,0.5-0.6,0.8-0.8,1.3c-0.8-1.1-1.3-1.9-1.9-3.4
					c0.1,2.7,0.1,3,0.1,3.9v7.1c0,1.3,0,2.1,0.1,2.8h-1.8c0.1-0.7,0.1-1.5,0.1-2.8v-6.8c0-1.1,0-1.7,0.1-3.8c-0.7,3-1.7,5.1-3.2,7.3
					c-0.3-0.6-0.6-0.9-1-1.4c1.6-1.8,3.1-5.1,3.9-8.3h-1.4c-0.7,0-1.3,0-1.7,0.1V6.8c0.5,0.1,1,0.1,1.8,0.1h1.6V4.5
					c0-1.4,0-1.9-0.1-2.5h1.7C368,2.6,368,3.2,368,4.4v2.4h1.2c0.7,0,1.1,0,1.6-0.1v1.5c-0.5,0-1-0.1-1.5-0.1L368.1,8.2L368.1,8.2z
					 M380.9,12.7c-0.1,0.3-0.1,0.3-0.8,1.7c-0.8,1.6-1.3,2.6-2.1,3.7c0.8,0.9,1.5,1.5,2.4,2.1c1.3,0.9,2.4,1.4,4.4,2.1
					c-0.4,0.5-0.6,0.9-0.9,1.5c-3.1-1.2-4.9-2.4-6.8-4.6c-1.9,2.1-3.7,3.4-6.7,4.6c-0.3-0.6-0.5-0.9-0.9-1.3c3-1.1,4.8-2.3,6.7-4.4
					c-0.8-1.1-1.2-1.8-2.4-4.2c0-0.1-0.1-0.2-0.2-0.5l-0.2-0.4l1.5-0.7c0.5,1.8,1.2,3.2,2.3,4.7c1.1-1.6,1.8-3.1,2.3-4.8L380.9,12.7
					z M375.6,8.2c-1.4,2.8-2.3,4.1-4.2,5.8c-0.3-0.5-0.5-0.7-1-1.1c1.9-1.6,2.7-2.7,3.9-5.3L375.6,8.2z M376.4,4.2
					c0-0.8,0-1.4-0.1-1.9h1.8C378,2.8,378,3.4,378,4.2v1.3h4.1c1,0,1.8,0,2.5-0.1V7c-0.7-0.1-1.6-0.1-2.5-0.1h-8.4
					c-1,0-1.9,0-2.5,0.1V5.4c0.6,0.1,1.4,0.1,2.5,0.1h2.8L376.4,4.2L376.4,4.2z M379.9,7.5c1.3,2.1,2.3,3.2,4.4,4.9
					c-0.4,0.5-0.6,0.7-0.9,1.3c-2.2-1.8-3.3-3-4.7-5.5L379.9,7.5z"/>
			</g>
		</g>
	</g>
</g>
</svg>
