<!--?xml version="1.0" encoding="utf-8"?-->
<!-- Generator: Adobe Illustrator 18.1.1, SVG Export Plug-In . SVG Version: 6.00 Build 0)  -->

<svg version="1.1" id="_x32_" xmlns="http://www.w3.org/2000/svg" xmlns:xlink="http://www.w3.org/1999/xlink" x="0px" y="0px" viewBox="0 0 512 512" style="width: 256px; height: 256px; opacity: 1;" xml:space="preserve">
<style type="text/css">
	.st0{fill:#4B4B4B;}
</style>
<g>
	<path class="st0" d="M85.918,69.5h221.59v32.901c11.246,2.098,22.074,5.623,32.484,10.156V54.893
		C339.992,24.59,315.312,0,285.099,0H108.246C78.034,0,53.435,24.59,53.435,54.893v402.214c0,30.303,24.599,54.893,54.812,54.893
		h176.852c30.213,0,54.893-24.59,54.893-54.893v-53.131H85.918V69.5z M196.68,435.131c12.263,0,22.23,9.967,22.23,22.229
		c0,12.254-9.967,22.238-22.23,22.238c-12.262,0-22.229-9.983-22.229-22.238C174.451,445.098,184.419,435.131,196.68,435.131z" style="fill: rgb(61, 61, 61);"></path>
	<path class="st0" d="M448.836,379.59c0,0-39.877-34.877-49.418-44.394c-14-13.934-19.59-20.647-14.656-31.966
		c21.615-44.082,14.14-98.804-22.525-135.459c-46.098-46.107-120.86-46.107-166.959,0c-46.098,46.114-46.098,120.852,0,166.959
		c36.648,36.648,91.402,44.123,135.451,22.516c11.328-4.935,18.049,0.656,31.976,14.664c9.524,9.532,44.394,49.41,44.394,49.41
		c18.082,18.082,31.992,6.968,40.36-1.385C455.795,411.582,466.918,397.672,448.836,379.59z M327.099,299.582
		c-26.697,26.68-69.976,26.68-96.68,0c-26.681-26.688-26.681-69.984,0-96.656c26.704-26.688,69.983-26.688,96.68,0
		C353.779,229.598,353.779,272.894,327.099,299.582z" style="fill: rgb(61, 61, 61);"></path>
</g>
</svg>
