<!--?xml version="1.0" encoding="utf-8"?-->
<!-- Generator: Adobe Illustrator 18.1.1, SVG Export Plug-In . SVG Version: 6.00 Build 0)  -->

<svg version="1.1" id="_x32_" xmlns="http://www.w3.org/2000/svg" xmlns:xlink="http://www.w3.org/1999/xlink" x="0px" y="0px" viewBox="0 0 512 512" style="width: 256px; height: 256px; opacity: 1;" xml:space="preserve">
<style type="text/css">
	.st0{fill:#4B4B4B;}
</style>
<g>
	<path class="st0" d="M405.369,78.427H106.631L0,171.016v3.764v52.337v1.163v205.293h66.066V228.28h23.402v133.79h57.807V228.28
		h217.442v133.79h57.814V228.28h23.395v205.293H512V228.28v-1.163v-56.11L405.369,78.427z M112.792,94.946H399.2l84.808,73.634
		H27.984L112.792,94.946z M49.548,417.055H16.519V228.28h33.029V417.055z M130.757,345.55h-24.77V228.28h24.77V345.55z
		 M406.014,345.55h-24.778V228.28h24.778V345.55z M495.482,417.055h-33.037V228.28h33.037V417.055z M495.482,211.762H16.519v-30.79
		h478.963V211.762z" style="fill: rgb(75, 75, 75);"></path>
</g>
</svg>
