<!--?xml version="1.0" encoding="utf-8"?-->
<!-- Generator: Adobe Illustrator 18.1.1, SVG Export Plug-In . SVG Version: 6.00 Build 0)  -->

<svg version="1.1" id="_x32_" xmlns="http://www.w3.org/2000/svg" xmlns:xlink="http://www.w3.org/1999/xlink" x="0px" y="0px" viewBox="0 0 512 512" style="width: 256px; height: 256px; opacity: 1;" xml:space="preserve">
<style type="text/css">
	.st0{fill:#4B4B4B;}
</style>
<g>
	<path class="st0" d="M435.931,270.343c-5.941-10.546-13.029-19.954-21.418-27.813c0.112-0.18,0.248-0.334,0.36-0.505
		c3.724-5.719,5.684-11.96,6.84-17.815c0.967-5.025,1.318-9.776,1.412-13.877h4.117c14.408,0,26.084-11.676,26.084-26.075
		c0-14.416-11.676-26.084-26.084-26.084h-36.288c-5.231,0-10.076,1.55-14.16,4.178l-7.935-117.914
		C367.172,19.441,346.396,0.009,321.321,0H190.679c-25.074,0.009-45.851,19.441-47.537,44.438l-7.936,117.914
		c-4.083-2.628-8.929-4.178-14.16-4.178H84.758c-14.416,0-26.084,11.668-26.084,26.084c0,14.399,11.668,26.075,26.084,26.075h4.135
		c0.128,5.71,0.719,12.678,2.851,19.818c1.207,4.006,2.893,8.064,5.384,11.874c0.112,0.171,0.248,0.325,0.359,0.505
		c-8.389,7.859-15.494,17.266-21.418,27.813l-7.466,13.269c-3.646,6.463-5.495,13.611-5.495,20.734
		c-0.009,8.552,2.671,17.079,7.79,24.406c9.442,13.458,25.459,21.162,42.461,21.179h285.281c17.002-0.017,33.01-7.721,42.452-21.179
		c5.12-7.336,7.807-15.854,7.799-24.406c0-7.122-1.858-14.27-5.496-20.734L435.931,270.343z M390.954,176.305h36.288
		c4.383,0.018,7.927,3.562,7.936,7.953c-0.009,4.383-3.553,7.927-7.936,7.927h-36.288c-4.383,0-7.927-3.544-7.936-7.927
		C383.027,179.867,386.571,176.323,390.954,176.305z M390.954,210.333h14.004c-0.119,4.546-0.667,9.905-2.088,14.613
		c-0.728,2.448-1.704,4.64-2.843,6.489c-5.898-3.621-12.302-6.549-19.158-8.732l-1.002-14.87
		C383.223,209.417,386.982,210.333,390.954,210.333z M161.247,45.671c1.035-15.486,13.902-27.532,29.431-27.523h130.643
		c15.52-0.009,28.396,12.036,29.431,27.523l11.668,173.18c-3.904-0.428-7.893-0.693-12.028-0.684H161.607
		c-4.135-0.009-8.124,0.257-12.036,0.684L161.247,45.671z M84.758,192.185c-4.383,0-7.927-3.544-7.936-7.927
		c0.009-4.391,3.553-7.935,7.936-7.953h36.288c4.383,0.018,7.927,3.562,7.936,7.953c-0.009,4.383-3.553,7.927-7.936,7.927H84.758z
		 M132.133,207.834l-1.002,14.87c-6.873,2.183-13.268,5.11-19.184,8.748c-1.747-2.885-3.073-6.677-3.852-10.726
		c-0.694-3.528-0.984-7.166-1.07-10.393h14.022C125.019,210.333,128.777,209.417,132.133,207.834z M426.214,318.376
		c-5.573,8.047-16.051,13.424-27.574,13.406H113.359c-11.523,0.018-22.001-5.359-27.574-13.406
		c-3.065-4.408-4.528-9.219-4.528-14.031c0-4.006,1.018-8.012,3.158-11.838l7.465-13.269c7.67-13.611,16.941-24.244,28.207-31.52
		c11.283-7.259,24.662-11.378,41.518-11.412h188.786c16.856,0.034,30.236,4.152,41.52,11.412
		c11.265,7.276,20.536,17.909,28.199,31.52l7.473,13.269c2.14,3.826,3.158,7.832,3.158,11.838
		C430.743,309.157,429.28,313.968,426.214,318.376z" style="fill: rgb(75, 75, 75);"></path>
	<path class="st0" d="M321.707,409.428h-8.988h-34.936v-53.932h-18.148v72.072h53.085h8.988c7.071,0.009,13.38,2.842,18.02,7.473
		c4.632,4.64,7.474,10.958,7.474,18.029v14.202h18.14V453.07v-6.797h-0.582C361.488,425.41,343.485,409.428,321.707,409.428z" style="fill: rgb(75, 75, 75);"></path>
	<path class="st0" d="M339.941,467.271v-9.468c-0.008-11.386-9.228-20.588-20.604-20.606h-59.702v30.074h18.148v-11.925h41.554
		c1.352,0.018,2.456,1.104,2.456,2.457v9.468H339.941z" style="fill: rgb(75, 75, 75);"></path>
	<path class="st0" d="M252.366,467.271v-30.074h-59.701c-11.378,0.018-20.597,9.22-20.606,20.606v9.468h18.148v-9.468
		c0-1.353,1.096-2.44,2.457-2.457h41.562v11.925H252.366z" style="fill: rgb(75, 75, 75);"></path>
	<path class="st0" d="M164.8,453.07c0-7.072,2.842-13.39,7.464-18.029c4.648-4.631,10.958-7.464,18.037-7.473h18.055h44.01v-72.072
		h-18.139v53.932h-25.87h-18.055c-21.786,0-39.789,15.982-43.06,36.845h-0.582v6.797v14.202h18.14V453.07z" style="fill: rgb(75, 75, 75);"></path>
	<path class="st0" d="M255.996,477.433c-9.546,0-17.284,7.739-17.284,17.275c0,9.562,7.738,17.292,17.284,17.292
		c9.553,0,17.292-7.73,17.292-17.292C273.288,485.172,265.549,477.433,255.996,477.433z" style="fill: rgb(75, 75, 75);"></path>
	<path class="st0" d="M166.572,477.433c-9.553,0-17.284,7.739-17.284,17.275c0,9.562,7.731,17.292,17.284,17.292
		c9.554,0,17.284-7.73,17.284-17.292C183.856,485.172,176.125,477.433,166.572,477.433z" style="fill: rgb(75, 75, 75);"></path>
	<path class="st0" d="M345.437,477.433c-9.546,0-17.293,7.739-17.293,17.275c0,9.562,7.747,17.292,17.293,17.292
		c9.545,0,17.275-7.73,17.275-17.292C362.712,485.172,354.982,477.433,345.437,477.433z" style="fill: rgb(75, 75, 75);"></path>
</g>
</svg>
