<?xml version="1.0" encoding="utf-8"?>
<!-- Generator: Adobe Illustrator 19.0.0, SVG Export Plug-In . SVG Version: 6.00 Build 0)  -->
<svg version="1.1" id="レイヤー_1" xmlns="http://www.w3.org/2000/svg" xmlns:xlink="http://www.w3.org/1999/xlink" x="0px"
	 y="0px" viewBox="0 0 447.3 66.7" style="enable-background:new 0 0 447.3 66.7;" xml:space="preserve">
<g id="XMLID_2_">
	<path id="XMLID_3_" d="M17.6,18.5l0.8-1.9c-2.5-0.1-4.2-0.3-5.2-0.7c-1-0.4-1.5-1.2-1.5-2.2c0-0.9,0.3-1.7,1-2.6
		c0.8-1.1,1.6-2,2.5-2.9c0.9-0.9,1.7-1.5,2.5-1.9c0.6-0.3,1.5-0.4,2.7-0.4c2.7,0,5.9,0.2,9.3,0.5c0.8,0,1.5,0.1,2,0.1
		c0.5,0,1.1,0.1,1.7,0.1c1.5,0,2.4,0,2.8,0.1C36.5,6.6,37,6.8,37.5,7c0.4,0.1,0.7,0.3,1,0.6c0.6,0.6,0.8,1.5,0.8,2.7
		c0,2.3-0.8,3.8-2.4,4.4c-0.9,0.4-1.8,0.7-2.5,0.8c-0.8,0.1-2.1,0.3-4.1,0.4l-3.6,11.9c1.7,0,3.1,0,4.1-0.1c0.7,0,1.7-0.1,3.1-0.1
		c1.6,0,2.8,0.2,3.4,0.5c0.7,0.3,1,0.9,1,1.8c0,0.7-0.3,1.6-1,2.9c-0.6,1.3-1.3,2.3-2.1,3c-0.4,0.4-0.9,0.6-1.5,0.7
		c-0.6,0.1-1.7,0.2-3.3,0.2h-0.5h-0.8c-1.5,0-3.2,0.1-5.1,0.2c-1,3.4-1.9,5.9-2.7,7.7c-0.8,1.8-1.9,3.3-3.1,4.5
		c-0.8,0.9-1.7,1.5-2.7,2c-0.9,0.5-1.8,0.7-2.6,0.7c-1.4,0-2.5-0.4-3.5-1.2S8,49.1,8,48.1c0-1.2,1.1-5.1,3.2-11.6
		C13.3,30,15.4,24,17.6,18.5z"/>
	<path id="XMLID_5_" d="M63.6,40.9L63,41.4c-0.1,0.1-0.9,0.6-2.2,1.7c-2.7,2.1-4.8,3.7-6.6,4.9c-1.7,1.2-3.2,2.1-4.3,2.7
		c-1.2,0.6-2.1,0.8-2.8,0.8c-1.2,0-2.2-0.5-2.9-1.5c-0.7-1-1.1-2.3-1.1-3.8c0-2.7,0.4-5.7,1.2-9.3c0.8-3.5,1.9-7,3.2-10.4
		c1.5-3.8,3.3-6.1,5.4-7c0.8-0.3,1.6-0.5,2.7-0.5c1.4,0,2.5,0.4,3.4,1.3s1.3,2,1.3,3.4c0,1-0.2,2-0.5,3.1s-0.9,2.4-1.6,3.9l-0.4,1
		C56,35.7,55,38.1,55,39c0,0.5,0.2,0.8,0.5,0.8c0.3,0,0.8-0.2,1.3-0.7s1.4-1.3,2.5-2.6c0.7-0.8,1.7-1.9,2.9-3.2l1.2-1.2l1.1-1.1
		c2.2-2.2,4.1-3.8,5.5-4.8c1.4-1,2.6-1.5,3.5-1.5c1.8,0,2.7,1.5,2.7,4.6c0,0.6-0.1,1.8-0.2,3.4c-0.3,3.2-0.4,5.9-0.4,8.1
		c0,0.4,0,0.8,0,1.2c0,0.4,0,0.8,0,1.4c0.2,1.5,0.3,2.6,0.3,3.4l0.2,1.9c0,0.7-0.6,1.3-1.8,1.8c-1.2,0.5-2.6,0.8-4.2,0.8
		c-1.4,0-2.7-0.3-3.7-0.8s-1.8-1.4-2.3-2.5c-0.5-1.1-0.8-2.5-0.8-4.1c0-0.2,0-0.5,0.1-1C63.5,42.4,63.6,41.7,63.6,40.9z"/>
	<path id="XMLID_7_" d="M91.8,41.2l-0.1,0.7c0,0.4,0,0.9-0.1,1.6c-0.1,1.1-0.2,2-0.4,2.7c-0.2,0.7-0.4,1.3-0.7,1.7
		c-0.3,0.5-0.7,0.9-1.3,1.4c-1.6,1.5-3.2,2.2-4.9,2.2c-1.3,0-2.3-0.5-2.9-1.5c-0.6-1-0.9-2.5-0.9-4.7c0-1.7,0.2-3.9,0.6-6.4
		c0.4-2.5,0.9-4.8,1.4-6.8l0.3-0.9c0-0.1,0.1-0.4,0.2-0.8c0.8-3,1.6-5.2,2.3-6.7c0.7-1.4,1.5-2.6,2.5-3.5c0.9-0.7,1.8-1,2.9-1
		c1.6,0,2.5,1,2.9,2.9c0.3-0.3,0.6-0.6,0.9-0.9c0.6-0.8,1.1-1.3,1.5-1.5c0.4-0.3,0.8-0.4,1.2-0.4c1.9,0,2.9,1.9,2.9,5.6
		c0,2.1-0.2,4.1-0.7,6c-0.4,1.9-1,3.5-1.7,4.7c-0.7,1.2-1.3,1.8-2,1.8c-0.7,0-1.1-1.4-1.1-4.2c0-1.5-0.1-2.6-0.2-3.4
		s-0.4-1.5-0.8-1.9c-0.7,1.2-1.1,4.1-1.3,8.5C92,38.9,91.9,40.5,91.8,41.2z"/>
	<path id="XMLID_9_" d="M118.2,33.8l2-2.3c2-2.2,3.6-3.9,4.8-5c1.2-1.1,2.2-1.9,3.2-2.4s1.9-0.7,2.9-0.7c1.6,0,2.7,0.4,3.3,1.3
		c0.6,0.8,1,2.3,1,4.4c0,0.9-0.1,2.1-0.3,3.8c-0.3,2.2-0.4,4.3-0.4,6.3c0,2.2,0.1,4,0.3,5.4c0.2,0.8,0.4,1.7,0.7,2.5
		c0.2,0.8,0.3,1.3,0.3,1.6c0,0.4-0.1,0.6-0.4,0.8c-0.7,0.6-1.6,1.1-2.7,1.6s-2.1,0.7-2.9,0.7c-1.3,0-2.4-0.4-3.4-1.3
		s-1.8-2.1-2.4-3.6s-0.8-3.3-0.8-5.2c0-1.3,0.1-2.8,0.4-4.5l-0.1-0.1c-1,1.1-1.7,1.9-2.3,2.5c-0.6,0.6-1.1,1.2-1.6,1.8
		c-2.5,2.8-4.6,5.4-6.3,7.7c-0.7,0.9-1.3,1.7-1.8,2.3c-0.8,0.8-1.7,1.2-2.8,1.2c-1.4,0-2.6-0.5-3.5-1.6c-0.9-1.1-1.3-2.4-1.3-4.1
		c0-1,0.1-2.3,0.4-3.8c0.2-1.5,0.6-3.1,1-4.8c0.4-1.7,0.9-3.5,1.5-5.3c0.6-1.8,1.2-3.5,1.8-5.2c1-2.7,2.3-4.8,3.7-6.4
		c1-1,2.2-1.5,3.6-1.5c2.3,0,3.5,1.5,3.5,4.5c0,2.2-0.5,5.3-1.4,9.4L118.2,33.8z"/>
	<path id="XMLID_11_" d="M144.8,51.7c-1-0.1-1.9-0.5-2.7-1.4c-0.8-0.9-1.4-1.8-1.7-2.9s-0.5-2.4-0.5-4c0-3.7,0.7-7.8,2-12.4
		c1.4-4.6,2.9-7.9,4.6-10c0.7-0.9,1.6-1.3,2.9-1.3c1.3,0,2.3,0.6,3.1,1.8c0.8,1.2,1.2,2.7,1.2,4.6c0,2.8-0.4,6.1-1.2,9.9
		c-0.8,3.8-1.9,7.7-3.4,11.8c-0.6,1.6-1.3,2.7-2.1,3.3C146.4,51.5,145.7,51.7,144.8,51.7L144.8,51.7z M148.8,18.3
		c-2.1-0.1-3.1-1.3-3.1-3.8c0-1.2,0.3-2.6,0.9-4.2c0.6-1.6,1.3-2.8,2.1-3.6c0.4-0.4,0.8-0.7,1.2-0.9c0.4-0.2,0.9-0.3,1.6-0.3
		c1.1,0,1.9,0.3,2.4,0.8c0.5,0.5,0.8,1.4,0.8,2.7c0,1.6-0.3,3.1-0.8,4.5c-0.5,1.4-1.3,2.5-2.2,3.4C150.8,17.9,149.9,18.3,148.8,18.3
		L148.8,18.3z"/>
	<path id="XMLID_14_" d="M164.6,19.2l0.1-0.4c1.5-4.1,2.7-7,3.8-8.7c0.5-0.8,1.2-1.5,2.1-2.1c1.7-1.1,3.3-1.6,4.8-1.6
		c0.9,0,1.6,0.2,2,0.6s0.7,1,0.7,1.7c0,0.5-0.3,1.5-1,3.1c-1.1,2.6-2,5.1-2.5,7.3c0.4,0,0.7,0.1,1.1,0.2c1.3,0.2,2.2,0.4,2.6,0.7
		s0.6,0.7,0.6,1.4c0,1.2-0.3,2.3-0.9,3.3c-0.6,1-1.4,1.7-2.4,2.2c-0.7,0.3-1.9,0.6-3.5,0.7c-0.3,0.9-0.6,2-1,3.6
		c-0.2,1.3-0.4,3.2-0.7,5.5c-0.1,0.9-0.2,1.7-0.2,2.4c0,3.5,1.7,5.2,5.1,5.2h0.2h0.1c0.4,0,0.6,0.1,0.6,0.2c0,0.4-0.4,1-1.1,1.8
		c-0.8,0.8-1.6,1.6-2.5,2.2c-1,0.7-2,1.2-3.2,1.6c-1.2,0.4-2.2,0.6-3.1,0.6c-2.3,0-4.2-0.8-5.7-2.4c-1.5-1.6-2.2-3.7-2.2-6.2
		c0-1.1,0.2-2.6,0.6-4.3c0.4-1.8,1-4.2,1.8-7.2c0.1-0.5,0.3-1.1,0.4-1.7c0.2-0.6,0.2-0.9,0.3-1c-0.9,0-1.5-0.2-1.9-0.6
		c-0.4-0.4-0.6-0.9-0.6-1.7c0-1.4,0.5-2.7,1.6-4C161.9,20.3,163.2,19.5,164.6,19.2z"/>
	<path id="XMLID_16_" d="M203.6,40.9l-0.6,0.5c-0.1,0.1-0.9,0.6-2.2,1.7c-2.7,2.1-4.8,3.7-6.6,4.9c-1.7,1.2-3.2,2.1-4.3,2.7
		c-1.2,0.6-2.1,0.8-2.8,0.8c-1.2,0-2.2-0.5-2.9-1.5c-0.7-1-1.1-2.3-1.1-3.8c0-2.7,0.4-5.7,1.2-9.3c0.8-3.5,1.9-7,3.2-10.4
		c1.5-3.8,3.3-6.1,5.4-7c0.8-0.3,1.6-0.5,2.7-0.5c1.4,0,2.5,0.4,3.4,1.3s1.3,2,1.3,3.4c0,1-0.2,2-0.5,3.1s-0.9,2.4-1.6,3.9l-0.4,1
		c-1.9,4-2.9,6.5-2.9,7.3c0,0.5,0.2,0.8,0.5,0.8c0.3,0,0.8-0.2,1.3-0.7s1.4-1.3,2.5-2.6c0.7-0.8,1.7-1.9,2.9-3.2l1.2-1.2l1.1-1.1
		c2.2-2.2,4.1-3.8,5.5-4.8c1.4-1,2.6-1.5,3.5-1.5c1.8,0,2.7,1.5,2.7,4.6c0,0.6-0.1,1.8-0.2,3.4c-0.3,3.2-0.4,5.9-0.4,8.1
		c0,0.4,0,0.8,0,1.2c0,0.4,0,0.8,0,1.4c0.2,1.5,0.3,2.6,0.3,3.4l0.2,1.9c0,0.7-0.6,1.3-1.8,1.8c-1.2,0.5-2.6,0.8-4.2,0.8
		c-1.4,0-2.7-0.3-3.7-0.8s-1.8-1.4-2.3-2.5c-0.5-1.1-0.8-2.5-0.8-4.1c0-0.2,0-0.5,0.1-1C203.5,42.4,203.6,41.7,203.6,40.9z"/>
	<path id="XMLID_18_" d="M231.8,41.2l-0.1,0.7c0,0.4,0,0.9-0.1,1.6c-0.1,1.1-0.2,2-0.4,2.7c-0.2,0.7-0.4,1.3-0.7,1.7
		c-0.3,0.5-0.7,0.9-1.3,1.4c-1.6,1.5-3.2,2.2-4.9,2.2c-1.3,0-2.3-0.5-2.9-1.5c-0.6-1-0.9-2.5-0.9-4.7c0-1.7,0.2-3.9,0.6-6.4
		c0.4-2.5,0.9-4.8,1.4-6.8l0.3-0.9c0-0.1,0.1-0.4,0.2-0.8c0.8-3,1.6-5.2,2.3-6.7c0.7-1.4,1.5-2.6,2.5-3.5c0.9-0.7,1.8-1,2.9-1
		c1.6,0,2.5,1,2.9,2.9c0.3-0.3,0.6-0.6,0.9-0.9c0.6-0.8,1.1-1.3,1.5-1.5c0.4-0.3,0.8-0.4,1.2-0.4c1.9,0,2.9,1.9,2.9,5.6
		c0,2.1-0.2,4.1-0.7,6c-0.4,1.9-1,3.5-1.7,4.7c-0.7,1.2-1.3,1.8-2,1.8c-0.7,0-1.1-1.4-1.1-4.2c0-1.5-0.1-2.6-0.2-3.4
		s-0.4-1.5-0.8-1.9c-0.7,1.2-1.1,4.1-1.3,8.5C232,38.9,231.9,40.5,231.8,41.2z"/>
	<path id="XMLID_20_" d="M255.5,42.1c0.2,1.3,1.1,2,2.6,2c1.7,0,3.8-1,6.5-2.9c1.5-1.1,2.6-1.7,3.1-1.7c0.7,0,1.3,0.2,1.9,0.5
		c0.6,0.4,0.9,0.7,0.9,1.1c0,0.4-0.3,0.9-1,1.6c-1.2,1.2-2.5,2.3-4.1,3.4c-1.5,1.1-3,2-4.4,2.8c-1.4,0.7-2.8,1.3-4.3,1.8
		c-1.4,0.4-2.7,0.6-3.8,0.6c-2.8,0-5-0.8-6.6-2.4c-1.7-1.6-2.5-3.7-2.5-6.3c0-2,0.4-4.3,1.3-6.8c0.9-2.5,2.1-4.9,3.5-7.1
		c1.7-2.6,3.9-4.7,6.4-6.5c3.1-2.1,6.2-3.1,9-3.1c2.1,0,3.7,0.7,4.9,2c1.2,1.3,1.8,3.1,1.8,5.4c0,1.8-0.5,3.7-1.4,5.6
		c-0.9,1.9-2.3,3.8-4.2,5.6c-1.5,1.5-3,2.7-4.4,3.5c-1.5,0.8-2.7,1.3-3.8,1.3C256.5,42.4,256,42.3,255.5,42.1z M255.4,41
		c1-0.7,1.8-1.4,2.3-2.1c1.2-1.4,2.1-3.1,2.7-4.9c0.5-1.2,0.9-2.6,1.2-4.1c0.3-1.5,0.4-2.9,0.4-4.2c0-1.2-0.3-1.8-0.8-1.8
		c-0.7,0-1.8,1.6-3.3,4.7c-0.9,1.9-1.6,3.8-2.1,5.6c-0.5,1.9-0.8,3.5-0.8,4.8C255.1,39.5,255.2,40.1,255.4,41z"/>
	<path id="XMLID_23_" d="M278.3,41c-1.2,0-2.1-0.3-2.9-1s-1.1-1.5-1.1-2.6c0-0.6,0.2-1.5,0.5-2.5c0.4-1,0.7-1.7,1.1-2.1
		c1-1,3.2-1.4,6.4-1.4c2.3,0,4,0.2,4.9,0.6c1,0.4,1.5,1.1,1.5,2.2c0,1.2-0.3,2.2-0.9,3.1c-0.6,0.8-1.6,1.5-3.1,2.1
		C281.9,40.5,279.7,41,278.3,41z"/>
	<path id="XMLID_25_" d="M302.6,52.8c1.3-0.1,2.5-0.7,3.6-1.9c1.1-1.2,1.6-2.5,1.6-3.9c0-1-0.3-1.7-1-2.3c-0.7-0.7-2.2-1.4-4.6-2
		c-3.5-1-5.8-2.2-6.9-3.4c-1-1-1.5-2.2-1.5-3.7c0-2.5,0.9-5.1,2.8-7.6c1.8-2.5,4.2-4.6,7.1-6.3c2.9-1.6,5.8-2.4,8.7-2.4
		c1.4,0,2.7,0.3,4,1c1.2,0.7,2.2,1.5,3,2.6s1.1,2.3,1.1,3.6c0,1.3-0.4,2.6-1.2,3.9c-0.8,1.4-1.8,2.5-3,3.4c-1.2,0.9-2.4,1.3-3.4,1.3
		c-0.6,0-1.2-0.1-1.6-0.4c-0.5-0.3-0.7-0.6-0.7-0.9c0-0.3,0.1-0.8,0.3-1.4c0.5-1.9,0.7-3.6,0.7-5c0-1.4-0.4-2.7-1.3-4
		c-1.1,0.8-1.8,1.3-2.1,1.8c-0.8,1-1.5,2.1-2,3.3c-0.5,1.3-0.8,2.5-0.8,3.6c0,0.8,0.2,1.4,0.5,1.9c0.4,0.5,1,0.9,1.8,1.2
		s2.1,0.7,3.8,1.1c2.8,0.7,4.8,1.4,5.9,2c0.3,0.2,0.7,0.5,1.2,1c0.8,0.9,1.3,2.1,1.3,3.5c0,1.5-0.5,3.1-1.4,4.6
		c-1,1.6-2.4,3.2-4.4,4.8c-2.1,1.8-4.2,3.1-6.3,3.9c-2.1,0.8-4.4,1.2-7,1.2c-2.5,0-4.4-0.5-5.8-1.5c-1.4-1-2.1-2.3-2.1-4
		c0-1.2,0.5-2.4,1.4-3.6s2.1-2.2,3.5-3c1.4-0.8,2.7-1.2,4.1-1.2c1,0,1.5,0.2,1.5,0.7c0,0.2-0.1,0.6-0.4,1.1c-0.9,1.5-1.3,3-1.3,4.3
		C301.6,51,301.9,51.9,302.6,52.8z"/>
	<path id="XMLID_27_" d="M330.8,19.2l0.1-0.4c1.5-4.1,2.7-7,3.8-8.7c0.5-0.8,1.2-1.5,2.1-2.1c1.7-1.1,3.3-1.6,4.8-1.6
		c0.9,0,1.6,0.2,2,0.6c0.5,0.4,0.7,1,0.7,1.7c0,0.5-0.3,1.5-1,3.1c-1.1,2.6-2,5.1-2.5,7.3c0.4,0,0.7,0.1,1.1,0.2
		c1.3,0.2,2.2,0.4,2.6,0.7s0.6,0.7,0.6,1.4c0,1.2-0.3,2.3-0.9,3.3c-0.6,1-1.4,1.7-2.4,2.2c-0.7,0.3-1.9,0.6-3.5,0.7
		c-0.3,0.9-0.6,2-1,3.6c-0.2,1.3-0.4,3.2-0.7,5.5c-0.1,0.9-0.2,1.7-0.2,2.4c0,3.5,1.7,5.2,5.1,5.2h0.2h0.1c0.4,0,0.6,0.1,0.6,0.2
		c0,0.4-0.4,1-1.1,1.8c-0.8,0.8-1.6,1.6-2.5,2.2c-1,0.7-2,1.2-3.2,1.6c-1.2,0.4-2.2,0.6-3.1,0.6c-2.3,0-4.2-0.8-5.7-2.4
		c-1.5-1.6-2.2-3.7-2.2-6.2c0-1.1,0.2-2.6,0.6-4.3c0.4-1.8,1-4.2,1.8-7.2c0.1-0.5,0.3-1.1,0.4-1.7c0.2-0.6,0.2-0.9,0.3-1
		c-0.9,0-1.5-0.2-1.9-0.6c-0.4-0.4-0.6-0.9-0.6-1.7c0-1.4,0.5-2.7,1.6-4C328.1,20.3,329.4,19.5,330.8,19.2z"/>
	<path id="XMLID_29_" d="M371.5,17.9c3.3,0,4.9,0.4,4.9,1.2c0,0.9-0.7,1.4-2.2,1.4c-1.8,0.1-3.5,0.6-5,1.5c-1.5,0.9-2.9,2.1-4.1,3.7
		c-1.2,1.6-2.1,3.3-2.8,5.3c-0.7,2-1,4.1-1,6.2c0,2.4,0.6,4.4,1.7,5.8c1.1,1.5,2.6,2.2,4.4,2.2c1.7,0,3.2-0.9,4.4-2.6s1.9-3.7,1.9-6
		c0-1.9-0.4-3.6-1.2-5.3c-0.8-1.6-1.9-3-3.4-4.2c-0.6-0.5-1-0.9-1-1.1c0-0.3,0.5-0.8,1.4-1.4c1-0.7,2.2-1.3,3.4-1.7s2.3-0.7,3.2-0.7
		c1,0,1.9,0.3,2.8,0.8c0.9,0.5,1.7,1.3,2.4,2.2c0.7,1,1.2,2.1,1.6,3.3c0.4,1.3,0.5,2.6,0.5,4c0,2.3-0.4,4.7-1.3,7
		c-0.9,2.3-2,4.1-3.5,5.6c-1.9,1.8-4.1,3.3-6.7,4.4c-2.6,1.1-5.1,1.7-7.5,1.7c-2.3,0-4.6-0.4-6.9-1.2c-2.3-0.8-4.1-1.8-5.4-3.2
		c-1.8-1.8-2.7-4.3-2.7-7.5c0-2.6,0.6-5.1,1.9-7.7c1.3-2.6,3-4.9,5.1-7s4.5-3.7,7.1-4.9C366.2,18.5,368.8,17.9,371.5,17.9z"/>
	<path id="XMLID_31_" d="M398.8,41.2l-0.1,0.7c0,0.4,0,0.9-0.1,1.6c-0.1,1.1-0.2,2-0.4,2.7c-0.2,0.7-0.4,1.3-0.7,1.7
		c-0.3,0.5-0.7,0.9-1.3,1.4c-1.6,1.5-3.2,2.2-4.9,2.2c-1.3,0-2.3-0.5-2.9-1.5c-0.6-1-0.9-2.5-0.9-4.7c0-1.7,0.2-3.9,0.6-6.4
		c0.4-2.5,0.9-4.8,1.4-6.8l0.3-0.9c0-0.1,0.1-0.4,0.2-0.8c0.8-3,1.6-5.2,2.3-6.7c0.7-1.4,1.5-2.6,2.5-3.5c0.9-0.7,1.8-1,2.9-1
		c1.6,0,2.5,1,2.9,2.9c0.3-0.3,0.6-0.6,0.9-0.9c0.6-0.8,1.1-1.3,1.5-1.5c0.4-0.3,0.8-0.4,1.2-0.4c1.9,0,2.9,1.9,2.9,5.6
		c0,2.1-0.2,4.1-0.7,6c-0.4,1.9-1,3.5-1.7,4.7c-0.7,1.2-1.3,1.8-2,1.8c-0.7,0-1.1-1.4-1.1-4.2c0-1.5-0.1-2.6-0.2-3.4
		s-0.4-1.5-0.8-1.9c-0.7,1.2-1.1,4.1-1.3,8.5C399,38.9,398.8,40.5,398.8,41.2z"/>
	<path id="XMLID_33_" d="M422.4,42.1c0.2,1.3,1.1,2,2.6,2c1.7,0,3.8-1,6.5-2.9c1.5-1.1,2.6-1.7,3.1-1.7c0.7,0,1.3,0.2,1.9,0.5
		c0.6,0.4,0.9,0.7,0.9,1.1c0,0.4-0.3,0.9-1,1.6c-1.2,1.2-2.5,2.3-4.1,3.4c-1.5,1.1-3,2-4.4,2.8c-1.4,0.7-2.8,1.3-4.3,1.8
		c-1.4,0.4-2.7,0.6-3.8,0.6c-2.8,0-5-0.8-6.6-2.4c-1.7-1.6-2.5-3.7-2.5-6.3c0-2,0.4-4.3,1.3-6.8c0.9-2.5,2.1-4.9,3.5-7.1
		c1.7-2.6,3.9-4.7,6.4-6.5c3.1-2.1,6.2-3.1,9-3.1c2.1,0,3.7,0.7,4.9,2c1.2,1.3,1.8,3.1,1.8,5.4c0,1.8-0.5,3.7-1.4,5.6
		c-0.9,1.9-2.3,3.8-4.2,5.6c-1.5,1.5-3,2.7-4.4,3.5c-1.5,0.8-2.7,1.3-3.8,1.3C423.5,42.4,423,42.3,422.4,42.1z M422.4,41
		c1-0.7,1.8-1.4,2.3-2.1c1.2-1.4,2.1-3.1,2.7-4.9c0.5-1.2,0.9-2.6,1.2-4.1c0.3-1.5,0.4-2.9,0.4-4.2c0-1.2-0.3-1.8-0.8-1.8
		c-0.7,0-1.8,1.6-3.3,4.7c-0.9,1.9-1.6,3.8-2.1,5.6c-0.5,1.9-0.8,3.5-0.8,4.8C422.1,39.5,422.2,40.1,422.4,41z"/>
</g>
</svg>
